<?xml version="1.0" standalone="no"?>
<!DOCTYPE svg PUBLIC "-//W3C//DTD SVG 20010904//EN"
 "http://www.w3.org/TR/2001/REC-SVG-20010904/DTD/svg10.dtd">
<svg version="1.0" xmlns="http://www.w3.org/2000/svg"
 width="512.000000pt" height="512.000000pt" viewBox="0 0 512.000000 512.000000"
 preserveAspectRatio="xMidYMid meet">
<metadata>
Created by potrace 1.14, written by Peter Selinger 2001-2017
</metadata>
<g transform="translate(0.000000,512.000000) scale(0.100000,-0.100000)"
fill="#000000" stroke="none">
<path d="M1358 4865 c-2 -2 -26 -6 -53 -9 -148 -16 -388 -94 -497 -163 -21
-13 -40 -23 -43 -23 -3 0 -40 -23 -83 -51 -217 -144 -407 -357 -517 -579 -20
-41 -41 -84 -47 -94 -24 -46 -78 -222 -93 -306 -4 -19 -9 -46 -11 -60 -16 -87
-10 -352 10 -470 46 -260 187 -540 394 -782 93 -108 2038 -2040 2075 -2060 37
-21 102 -23 135 -5 41 23 2031 2008 2106 2101 252 312 370 607 383 956 10 257
-35 467 -153 705 -114 232 -297 440 -519 590 -162 110 -346 188 -545 231 -106
23 -414 26 -530 6 -169 -31 -384 -113 -545 -210 -55 -33 -203 -137 -215 -151
-3 -3 -15 -14 -26 -24 -21 -17 -23 -16 -110 49 -127 96 -213 150 -317 199
-139 66 -297 119 -397 132 -19 3 -55 9 -80 13 -44 8 -314 12 -322 5z"/>
</g>
</svg>
