<svg xmlns="http://www.w3.org/2000/svg" xmlns:xlink="http://www.w3.org/1999/xlink" viewBox="0 0 500 500"><defs><clipPath id="freepik--clip-path--inject-33"><path d="M217.85,225.51s-61.62,45.44-77,56.65-18.6,12.51-19.19,17-5.47,19.57-7.86,24.27.53,7.32,2.81,8.3a25.19,25.19,0,0,0,6.17,1.34s-7,6.06-2.82,9.58,14.29,2.84,14.29,2.84-2.55,6.65,3.2,10.5,16.44-3.65,17.88,0-3.74,15.58,6.47,22.39,27,1.6,30.52,8.21-1.46,14.22,9.81,20.13,23.27-3,26.9,2.58,4.94,20.85,13.92,27c12.23,8.35,28.32,8.6,46.36-4.15s23.59-33.28,32.94-50.14,22.51-12.16,38-18.25,18.4-19,18.95-31.93-2.25-18.87,18.44-26.08,12.55-37.41,7.85-39.79-30.32-14.88-37.38-17.27-135-27.31-135-27.31S223.4,220.5,217.85,225.51Z" style="fill:#fff;stroke:#263238;stroke-linecap:round;stroke-linejoin:round"></path></clipPath><clipPath id="freepik--clip-path-2--inject-33"><path d="M152.16,135s-10.16,8.49-16.92,14.67a67.21,67.21,0,0,1-18.11,11.39c-2.34.86-9.32-.83-7.31,3.21s7.94,13,12.2,18.87,16.12,18,21.18,18.78A83.58,83.58,0,0,1,155,205.09s6.48,6.11,9,4.15.71-8.21.71-8.21A74.5,74.5,0,0,0,183,187.42c9.3-9.29,23.44-28.72,23.44-28.72s9.62.19,9.87-2-8.69-6.37-8.69-6.37a66.49,66.49,0,0,0-16.71-16.69,113.72,113.72,0,0,0-22.23-11.5s-3.29-4.63-6.39-3-2.33,6.69-2.33,6.69Z" style="fill:#fff;stroke:#263238;stroke-linecap:round;stroke-linejoin:round"></path></clipPath><clipPath id="freepik--clip-path-3--inject-33"><path d="M259.79,157.56s7.51-12.61,16.34-16.27,18.74-4,25.14-3.61,29.07,1.72,33,.85,4.75.42,4.66-3.85-2.37-13.27-6-20.45-3.76-12.13-3.13-13.86,5.24-3.65,10.56-3,5.71-3.15,11.58-4.94,2.4,12.29,4.59,21.57,4.32,20.5,5.45,29.07-1,15.31-6.67,17.5-17.06,3-17.06,3-5.92,7.32-7.9,12.8-3.92,19.8-8,31.05-17.66,7.31-24.56.23-16.19-12.07-19.26-13.5-7.13-1.94-8.86-2.56,1.28-8-2.64-17.93S258.66,159.77,259.79,157.56Z" style="fill:#92E3A9;stroke:#263238;stroke-linecap:round;stroke-linejoin:round"></path></clipPath><clipPath id="freepik--clip-path-4--inject-33"><path d="M191.08,164.32a27.75,27.75,0,0,1-.59-7.39c.13-4.85,2.17-8.68,11.3-5.05S227.21,163.71,236,163s18.23-14.28,19.7-18.32,5.68-9.36,5.68-9.36-4.32,9.21-1.46,14.81,13.31,11,15.39,24.19-.87,18.61-.6,23.28l.26,4.66s-16.68-4.41-25.62-4.06-27.16-.71-32.93-2.8-20.67-15-24.11-17.23S186.05,171,191.08,164.32Z" style="fill:#92E3A9;stroke:#263238;stroke-linecap:round;stroke-linejoin:round"></path></clipPath></defs><g id="freepik--background-simple--inject-33"><path d="M439.29,214.71q-.62-6.27-1.7-12.52c-5.34-30.85-22-77-59.83-83.49-47.61-8.12-52,9.57-95.91,4.79-52.75-5.76-80-60.25-138.6-34.22C120.39,99.41,110.4,117,111.77,140c1.18,19.67,12,45.45.72,63.94-12.25,20.1-46.94,49.77-52,90.94s33.67,92.85,81.62,98.59,93.87-26.8,125.5-21.06c17.25,3.14,31.8,12.4,48.24,17.62,21,6.66,52.4,12.2,72.23-.12,17.63-10.95,24.92-32.35,31.38-50.17C433.65,300.39,443.46,256.38,439.29,214.71Z" style="fill:#92E3A9"></path><path d="M439.29,214.71q-.62-6.27-1.7-12.52c-5.34-30.85-22-77-59.83-83.49-47.61-8.12-52,9.57-95.91,4.79-52.75-5.76-80-60.25-138.6-34.22C120.39,99.41,110.4,117,111.77,140c1.18,19.67,12,45.45.72,63.94-12.25,20.1-46.94,49.77-52,90.94s33.67,92.85,81.62,98.59,93.87-26.8,125.5-21.06c17.25,3.14,31.8,12.4,48.24,17.62,21,6.66,52.4,12.2,72.23-.12,17.63-10.95,24.92-32.35,31.38-50.17C433.65,300.39,443.46,256.38,439.29,214.71Z" style="fill:#fff;opacity:0.8"></path></g><g id="freepik--Stars--inject-33"><polygon points="388.67 181.01 393.11 190 403.03 191.44 395.85 198.44 397.54 208.32 388.67 203.66 379.8 208.32 381.49 198.44 374.31 191.44 384.23 190 388.67 181.01" style="fill:#fff"></polygon><polygon points="255.46 189.42 259.89 198.41 269.81 199.85 262.63 206.85 264.33 216.73 255.46 212.06 246.58 216.73 248.28 206.85 241.1 199.85 251.02 198.41 255.46 189.42" style="fill:#fff"></polygon><polygon points="342.11 202.58 346.67 205.06 351.3 202.7 350.35 207.81 354.02 211.49 348.87 212.17 346.51 216.79 344.27 212.1 339.14 211.28 342.91 207.71 342.11 202.58" style="fill:#fff"></polygon><polygon points="395.13 322.21 399.7 324.69 404.33 322.34 403.38 327.44 407.05 331.12 401.9 331.8 399.54 336.43 397.3 331.74 392.17 330.92 395.94 327.34 395.13 322.21" style="fill:#fff"></polygon><polygon points="173.33 96.53 177.89 99 182.52 96.65 181.57 101.76 185.24 105.44 180.09 106.11 177.73 110.74 175.5 106.05 170.36 105.23 174.13 101.66 173.33 96.53" style="fill:#fff"></polygon><polygon points="92.98 291.21 97.55 293.69 102.18 291.34 101.23 296.44 104.9 300.12 99.75 300.8 97.39 305.43 95.15 300.74 90.02 299.92 93.79 296.34 92.98 291.21" style="fill:#fff"></polygon></g><g id="freepik--Bed--inject-33"><line x1="104.89" y1="245.05" x2="136.54" y2="288.63" style="fill:none;stroke:#263238;stroke-linecap:round;stroke-linejoin:round;stroke-width:4px"></line><path d="M127.77,254.52s.59,3.72,2.93,4.11,5.7-2.24,1.34-8.87-12.65-2-12,5.17S141.19,283,132,289.73c-5.22,3.79-10.33,2.75-16-5.09s-.84-13.28,3.86-12.5,9.74,8,7.15,10.36-7,.11-6.89-3" style="fill:none;stroke:#263238;stroke-linecap:round;stroke-linejoin:round;stroke-width:4px"></path><path d="M185.39,208.06s3.12,2.11,2.47,4.4-4.46,4.2-8.59-2.57,3.55-12.31,9.79-8.66,16.4,31.12,26.39,25.64c5.66-3.1,6.89-8.17,2.23-16.69s-11.65-6.41-12.94-1.83,3.1,12.22,6.31,10.88,3.08-6.27.23-7.51" style="fill:none;stroke:#263238;stroke-linecap:round;stroke-linejoin:round;stroke-width:4px"></path><line x1="121.16" y1="233.6" x2="152.81" y2="277.19" style="fill:none;stroke:#263238;stroke-linecap:round;stroke-linejoin:round;stroke-width:4px"></line><line x1="137.44" y1="222.16" x2="169.08" y2="265.74" style="fill:none;stroke:#263238;stroke-linecap:round;stroke-linejoin:round;stroke-width:4px"></line><line x1="153.71" y1="210.71" x2="185.35" y2="254.29" style="fill:none;stroke:#263238;stroke-linecap:round;stroke-linejoin:round;stroke-width:4px"></line><line x1="169.98" y1="199.27" x2="201.63" y2="242.85" style="fill:none;stroke:#263238;stroke-linecap:round;stroke-linejoin:round;stroke-width:4px"></line><line x1="186.25" y1="187.82" x2="217.9" y2="231.4" style="fill:none;stroke:#263238;stroke-linecap:round;stroke-linejoin:round;stroke-width:4px"></line><line x1="130.91" y1="308.21" x2="82.9" y2="240.07" style="fill:none;stroke:#263238;stroke-linecap:round;stroke-linejoin:round;stroke-width:4px"></line><path d="M86.9,238.49a4.3,4.3,0,1,0-2.42,5.58A4.29,4.29,0,0,0,86.9,238.49Z" style="fill:#263238"></path><path d="M189.65,163.68a4.3,4.3,0,1,0-2.42,5.58A4.29,4.29,0,0,0,189.65,163.68Z" style="fill:#263238"></path><line x1="92.34" y1="253.29" x2="195.73" y2="180.11" style="fill:none;stroke:#263238;stroke-linecap:round;stroke-linejoin:round;stroke-width:4px"></line><line x1="233.36" y1="227.87" x2="185.65" y2="165.26" style="fill:none;stroke:#263238;stroke-linecap:round;stroke-linejoin:round;stroke-width:4px"></line><path d="M217.85,225.51s-61.62,45.44-77,56.65-18.6,12.51-19.19,17-5.47,19.57-7.86,24.27.53,7.32,2.81,8.3a25.19,25.19,0,0,0,6.17,1.34s-7,6.06-2.82,9.58,14.29,2.84,14.29,2.84-2.55,6.65,3.2,10.5,16.44-3.65,17.88,0-3.74,15.58,6.47,22.39,27,1.6,30.52,8.21-1.46,14.22,9.81,20.13,23.27-3,26.9,2.58,4.94,20.85,13.92,27c12.23,8.35,28.32,8.6,46.36-4.15s23.59-33.28,32.94-50.14,22.51-12.16,38-18.25,18.4-19,18.95-31.93-2.25-18.87,18.44-26.08,12.55-37.41,7.85-39.79-30.32-14.88-37.38-17.27-135-27.31-135-27.31S223.4,220.5,217.85,225.51Z" style="fill:#fff"></path><g style="clip-path:url(#freepik--clip-path--inject-33)"><path d="M405.5,265.94c-4.7-2.38-30.32-14.88-37.38-17.27a29.56,29.56,0,0,1,2.77,4.27c5.41,1.84,16,6,12.56,5.53-3.93-.57-6.74.56,2.24,3.92s21.33,15.16,14.6,20.21c-5.5,4.12-25.18-10.06-32.25-15.42-1.85,1.5-3.94,2.75-5.65,4-5.88,4.19-11.2,11-17.17,18.52s-33.46,22.58-38.6,27.43c-2,1.9-5.6,5.85-9.73,10.34,3.29,3.71,24.11,27.43,15.83,25.88-9-1.68-25.82-19.65-23.58-13.47s6.18,9.54,0,9c-3.45-.32-6.72-2.38-9.13-4.44-1,.81-1.88,1.54-2.74,2.15-7.37,5.26-13.89,11.83-19.5,15,4.32,4.71,13.59,14.9,20.15,27.13,8.42,15.72-14.6-18-18-18.52s17.41,26.38,19.09,50-20.77,20.77-24.14,10.1c-2.65-8.41-3.91-43.72-4.33-58.26-.81-2.22-1.67-4.84-2.4-7.41-.07-.24-.13-.43-.19-.59l-.53,0c-.94,3.82,0,33.68-7.14,39.9-7.67,6.64-4.63-35.59-4-43.18-3.77-1.29-8.37-2.7-12.41-4a29,29,0,0,1-4.33,11.85c-4.49,6.73-.56-3.93-.56-9s-11.79,39.3-15.16,33.68,3.93-44.34,3.93-44.34a6.63,6.63,0,0,1,1.18-1.54c-2.8-2.7-5.3-5.31-6.82-6.44-2.07-1.53-5.92-3.44-9.92-5.6-.63,2-1.42,3.55-2.4,4-2.35,1.17-3.33-4.2-3.71-7.56l-1-.64-.45-.31c-1.3,1.72-3.31,4.45-4.39,6.26-1.69,2.81-.57-5.61-1.69-7.3s-10.1,16.28-12.35,10.11,1.14-21.54,1.14-21.54c-3.48-2.86-10.64-1.93-17.21-3.1s-8.49-8.42-13.2-10.8-11.77-2.42-12.65-5.84a9.19,9.19,0,0,1,.09-4.21,7.26,7.26,0,0,0-2.69,4.76c-.6,4.47-5.47,19.57-7.86,24.27s.53,7.32,2.81,8.3a25.19,25.19,0,0,0,6.17,1.34s-7,6.06-2.82,9.58,14.29,2.84,14.29,2.84-2.55,6.65,3.2,10.5,16.44-3.65,17.88,0-3.74,15.58,6.47,22.39,27,1.6,30.52,8.21-1.46,14.22,9.81,20.13,23.27-3,26.9,2.58,4.94,20.85,13.92,27c12.23,8.35,28.32,8.6,46.36-4.15s23.59-33.28,32.94-50.14,22.51-12.16,38-18.25,18.4-19,18.95-31.93-2.25-18.87,18.44-26.08S410.2,268.32,405.5,265.94Zm-56.3,87.95c-6.17-5.05-16.27-48.83-16.27-48.83,0-9,7.85,7.29,10.66,9s-2.24-13.48-4.49-17.4,11.79,9.54,21.33,34.8S355.38,358.94,349.2,353.89Z" style="fill:#92E3A9"></path><path d="M405.5,265.94c-4.7-2.38-30.32-14.88-37.38-17.27a29.56,29.56,0,0,1,2.77,4.27c5.41,1.84,16,6,12.56,5.53-3.93-.57-6.74.56,2.24,3.92s21.33,15.16,14.6,20.21c-5.5,4.12-25.18-10.06-32.25-15.42-1.85,1.5-3.94,2.75-5.65,4-5.88,4.19-11.2,11-17.17,18.52s-33.46,22.58-38.6,27.43c-2,1.9-5.6,5.85-9.73,10.34,3.29,3.71,24.11,27.43,15.83,25.88-9-1.68-25.82-19.65-23.58-13.47s6.18,9.54,0,9c-3.45-.32-6.72-2.38-9.13-4.44-1,.81-1.88,1.54-2.74,2.15-7.37,5.26-13.89,11.83-19.5,15,4.32,4.71,13.59,14.9,20.15,27.13,8.42,15.72-14.6-18-18-18.52s17.41,26.38,19.09,50-20.77,20.77-24.14,10.1c-2.65-8.41-3.91-43.72-4.33-58.26-.81-2.22-1.67-4.84-2.4-7.41-.07-.24-.13-.43-.19-.59l-.53,0c-.94,3.82,0,33.68-7.14,39.9-7.67,6.64-4.63-35.59-4-43.18-3.77-1.29-8.37-2.7-12.41-4a29,29,0,0,1-4.33,11.85c-4.49,6.73-.56-3.93-.56-9s-11.79,39.3-15.16,33.68,3.93-44.34,3.93-44.34a6.63,6.63,0,0,1,1.18-1.54c-2.8-2.7-5.3-5.31-6.82-6.44-2.07-1.53-5.92-3.44-9.92-5.6-.63,2-1.42,3.55-2.4,4-2.35,1.17-3.33-4.2-3.71-7.56l-1-.64-.45-.31c-1.3,1.72-3.31,4.45-4.39,6.26-1.69,2.81-.57-5.61-1.69-7.3s-10.1,16.28-12.35,10.11,1.14-21.54,1.14-21.54c-3.48-2.86-10.64-1.93-17.21-3.1s-8.49-8.42-13.2-10.8-11.77-2.42-12.65-5.84a9.19,9.19,0,0,1,.09-4.21,7.26,7.26,0,0,0-2.69,4.76c-.6,4.47-5.47,19.57-7.86,24.27s.53,7.32,2.81,8.3a25.19,25.19,0,0,0,6.17,1.34s-7,6.06-2.82,9.58,14.29,2.84,14.29,2.84-2.55,6.65,3.2,10.5,16.44-3.65,17.88,0-3.74,15.58,6.47,22.39,27,1.6,30.52,8.21-1.46,14.22,9.81,20.13,23.27-3,26.9,2.58,4.94,20.85,13.92,27c12.23,8.35,28.32,8.6,46.36-4.15s23.59-33.28,32.94-50.14,22.51-12.16,38-18.25,18.4-19,18.95-31.93-2.25-18.87,18.44-26.08S410.2,268.32,405.5,265.94Zm-56.3,87.95c-6.17-5.05-16.27-48.83-16.27-48.83,0-9,7.85,7.29,10.66,9s-2.24-13.48-4.49-17.4,11.79,9.54,21.33,34.8S355.38,358.94,349.2,353.89Z" style="fill:#fff;opacity:0.6000000000000001"></path><path d="M341.11,283.09c-.55-.24-1.18-.52-1.71-.82h0a5.37,5.37,0,0,0-.71-.31l-.3-.09-.3-.1H338a33.67,33.67,0,0,0-7-.65l-.76,0c-.21,0-.44,0-.67-.07-.56-1.64-1.18-3.28-1.82-4.84a12.42,12.42,0,0,1-.58-4.44c0-1.86,0-3.47-1.07-4.24a2.79,2.79,0,0,0-2.21-.35,15.94,15.94,0,0,0-3.92,1.21,7.88,7.88,0,0,1-2.73.78c-1.19-1.47-2.49-3.59-2-4.54.3-.61.94-1.65,1.61-2.75s1.19-2,1.66-2.77h0l0-.05.48-.86c0-.07.07-.14.1-.2l.29-.58.09-.19c.07-.16.13-.3.18-.43a.76.76,0,0,1,.06-.16,4,4,0,0,0,.11-.44.93.93,0,0,0-.35-1c-.59-.41-1.49-.09-2.85.41-.63.22-1.34.48-2.06.67a6.55,6.55,0,0,0-.77.28l-.34.16-.24.12s0,0,0,0a14.91,14.91,0,0,0-4.06,3.83l-.34.43a9.37,9.37,0,0,1-2.81,1.71h0l-.12.06c-.39.17-.74.34-1.06.51a5.38,5.38,0,0,0-1.1.68,1.57,1.57,0,0,0-.69,1.51c.13.77.94,1.47,2.48,2.14l.15.06h0c1.27.55,2.89,1.27,4.13,1.83a3.48,3.48,0,0,0-1.93,1c-.65,1-.21,3.34,2.26,6.16s4.06,6.32,4.11,8c0,.84,0,.84-1.14.91-.44,0-1,.06-1.69.15-2.55.32-16.89-.14-22.29-.32l-1,0a72.64,72.64,0,0,0-17.95,1.48,19.47,19.47,0,0,0-3.13,1,5.84,5.84,0,0,0-2.53-3.6l.45-.29c2.82-1.7,4.48-3.87,4.93-6.47.85-4.81-2.58-9.94-5.61-13.39s-8.15-5.7-13.61-5.88c-4.3-.15-8.14,1-10.23,3.08-.81.8-1.56,1.59-2.25,2.33-2.05,2.18-3.66,3.9-5.23,4a3.32,3.32,0,0,1-2.24-1c-.5-.44-.95-.88-1.38-1.28-2.7-2.56-4.64-4.41-10.88-2.53-2.52.76-4.09,2.1-4.68,4-1,3.07,1,6.68,3.22,9a5.1,5.1,0,0,1,.18,6.43,6.59,6.59,0,0,1-4.15,2.73c-.89-.42-1.83-.83-2.84-1.22a114.17,114.17,0,0,0-15.7-4.65c-.52-.39-2.75-1.89-5-1.22a2.68,2.68,0,0,0-2.07,3l-5.2,3.52c-.57.27-7.39,3.54-12,5.92a60.52,60.52,0,0,1-12.67,4.55,12,12,0,0,1-2.07.11c-1.76,0-3.29,0-3.69.8-.19.35-.09.74.28,1.17a85.8,85.8,0,0,0,8.71,7.7c2.78,2.18,11.44,7.36,15.29,7.71,3.25.29,7.52,1.11,8.17,1.24.64.34,3.62,1.85,5.68,1.85a2.7,2.7,0,0,0,1.1-.2c1.5-.68,1.37-2.31,1-3.45a65.4,65.4,0,0,0,12.57-5.39l.12-.07a43.73,43.73,0,0,0,5.33.4,14.42,14.42,0,0,1,2.61.19c.41.12,1.8.71,3.57,1.45,4,1.68,10,4.22,14.38,5.57,3,.91,5,1.54,6.32,1.54a2.44,2.44,0,0,0,1.41-.37c.86-.61.86-1.85.75-3a4.7,4.7,0,0,0-.46-1.52c4.58.2,9.45.28,12.65.2,6.22-.14,17.92,1.62,18,1.64h.09a.59.59,0,0,0,.37-.13.46.46,0,0,0,.17-.41l-.18-1.88a3.83,3.83,0,0,1,.16-1.29c.65.11,1.3.23,1.88.39a63.66,63.66,0,0,1,13.49,5.4,23.15,23.15,0,0,0,10.74,2.84,13.48,13.48,0,0,0,3-.3,6.71,6.71,0,0,0,4.47-2.8,46,46,0,0,0,3.87-8.43,26.57,26.57,0,0,1,1.78-4.12c1.2-1.89,4.61-4.42,5.33-4.94a91.57,91.57,0,0,0,12-1.2c4.11-.9,6-3.76,5.12-7.65-.14-.64-.32-1.34-.52-2.05l1.4,0c2.41-.09,5-.19,6.94-.33h.07l.48,0h.13l.37,0,.15,0,.28,0,.16,0,.23,0,.14,0,.31-.05c.36-.08,1.11-.23,1.18-.79S342.33,283.62,341.11,283.09Z" style="fill:#92E3A9"></path><path d="M341.11,283.09c-.55-.24-1.18-.52-1.71-.82h0a5.37,5.37,0,0,0-.71-.31l-.3-.09-.3-.1H338a33.67,33.67,0,0,0-7-.65l-.76,0c-.21,0-.44,0-.67-.07-.56-1.64-1.18-3.28-1.82-4.84a12.42,12.42,0,0,1-.58-4.44c0-1.86,0-3.47-1.07-4.24a2.79,2.79,0,0,0-2.21-.35,15.94,15.94,0,0,0-3.92,1.21,7.88,7.88,0,0,1-2.73.78c-1.19-1.47-2.49-3.59-2-4.54.3-.61.94-1.65,1.61-2.75s1.19-2,1.66-2.77h0l0-.05.48-.86c0-.07.07-.14.1-.2l.29-.58.09-.19c.07-.16.13-.3.18-.43a.76.76,0,0,1,.06-.16,4,4,0,0,0,.11-.44.93.93,0,0,0-.35-1c-.59-.41-1.49-.09-2.85.41-.63.22-1.34.48-2.06.67a6.55,6.55,0,0,0-.77.28l-.34.16-.24.12s0,0,0,0a14.91,14.91,0,0,0-4.06,3.83l-.34.43a9.37,9.37,0,0,1-2.81,1.71h0l-.12.06c-.39.17-.74.34-1.06.51a5.38,5.38,0,0,0-1.1.68,1.57,1.57,0,0,0-.69,1.51c.13.77.94,1.47,2.48,2.14l.15.06h0c1.27.55,2.89,1.27,4.13,1.83a3.48,3.48,0,0,0-1.93,1c-.65,1-.21,3.34,2.26,6.16s4.06,6.32,4.11,8c0,.84,0,.84-1.14.91-.44,0-1,.06-1.69.15-2.55.32-16.89-.14-22.29-.32l-1,0a72.64,72.64,0,0,0-17.95,1.48,19.47,19.47,0,0,0-3.13,1,5.84,5.84,0,0,0-2.53-3.6l.45-.29c2.82-1.7,4.48-3.87,4.93-6.47.85-4.81-2.58-9.94-5.61-13.39s-8.15-5.7-13.61-5.88c-4.3-.15-8.14,1-10.23,3.08-.81.8-1.56,1.59-2.25,2.33-2.05,2.18-3.66,3.9-5.23,4a3.32,3.32,0,0,1-2.24-1c-.5-.44-.95-.88-1.38-1.28-2.7-2.56-4.64-4.41-10.88-2.53-2.52.76-4.09,2.1-4.68,4-1,3.07,1,6.68,3.22,9a5.1,5.1,0,0,1,.18,6.43,6.59,6.59,0,0,1-4.15,2.73c-.89-.42-1.83-.83-2.84-1.22a114.17,114.17,0,0,0-15.7-4.65c-.52-.39-2.75-1.89-5-1.22a2.68,2.68,0,0,0-2.07,3l-5.2,3.52c-.57.27-7.39,3.54-12,5.92a60.52,60.52,0,0,1-12.67,4.55,12,12,0,0,1-2.07.11c-1.76,0-3.29,0-3.69.8-.19.35-.09.74.28,1.17a85.8,85.8,0,0,0,8.71,7.7c2.78,2.18,11.44,7.36,15.29,7.71,3.25.29,7.52,1.11,8.17,1.24.64.34,3.62,1.85,5.68,1.85a2.7,2.7,0,0,0,1.1-.2c1.5-.68,1.37-2.31,1-3.45a65.4,65.4,0,0,0,12.57-5.39l.12-.07a43.73,43.73,0,0,0,5.33.4,14.42,14.42,0,0,1,2.61.19c.41.12,1.8.71,3.57,1.45,4,1.68,10,4.22,14.38,5.57,3,.91,5,1.54,6.32,1.54a2.44,2.44,0,0,0,1.41-.37c.86-.61.86-1.85.75-3a4.7,4.7,0,0,0-.46-1.52c4.58.2,9.45.28,12.65.2,6.22-.14,17.92,1.62,18,1.64h.09a.59.59,0,0,0,.37-.13.46.46,0,0,0,.17-.41l-.18-1.88a3.83,3.83,0,0,1,.16-1.29c.65.11,1.3.23,1.88.39a63.66,63.66,0,0,1,13.49,5.4,23.15,23.15,0,0,0,10.74,2.84,13.48,13.48,0,0,0,3-.3,6.71,6.71,0,0,0,4.47-2.8,46,46,0,0,0,3.87-8.43,26.57,26.57,0,0,1,1.78-4.12c1.2-1.89,4.61-4.42,5.33-4.94a91.57,91.57,0,0,0,12-1.2c4.11-.9,6-3.76,5.12-7.65-.14-.64-.32-1.34-.52-2.05l1.4,0c2.41-.09,5-.19,6.94-.33h.07l.48,0h.13l.37,0,.15,0,.28,0,.16,0,.23,0,.14,0,.31-.05c.36-.08,1.11-.23,1.18-.79S342.33,283.62,341.11,283.09Z" style="fill:#fff;opacity:0.7000000000000001"></path></g><path d="M217.85,225.51s-61.62,45.44-77,56.65-18.6,12.51-19.19,17-5.47,19.57-7.86,24.27.53,7.32,2.81,8.3a25.19,25.19,0,0,0,6.17,1.34s-7,6.06-2.82,9.58,14.29,2.84,14.29,2.84-2.55,6.65,3.2,10.5,16.44-3.65,17.88,0-3.74,15.58,6.47,22.39,27,1.6,30.52,8.21-1.46,14.22,9.81,20.13,23.27-3,26.9,2.58,4.94,20.85,13.92,27c12.23,8.35,28.32,8.6,46.36-4.15s23.59-33.28,32.94-50.14,22.51-12.16,38-18.25,18.4-19,18.95-31.93-2.25-18.87,18.44-26.08,12.55-37.41,7.85-39.79-30.32-14.88-37.38-17.27-135-27.31-135-27.31S223.4,220.5,217.85,225.51Z" style="fill:none;stroke:#263238;stroke-linecap:round;stroke-linejoin:round"></path><path d="M122.81,333s6.5-15.74,6.23-26" style="fill:none;stroke:#263238;stroke-linecap:round;stroke-linejoin:round"></path><path d="M134.28,345.46s7.57-16.63,7.9-31.34" style="fill:none;stroke:#263238;stroke-linecap:round;stroke-linejoin:round"></path><path d="M158.74,333.48a41.51,41.51,0,0,0,.9-16.83s4.18,8.24,1.34,22.53" style="fill:none;stroke:#263238;stroke-linecap:round;stroke-linejoin:round"></path><path d="M193.6,381.38c1.93-10.64,1.29-43.32,1.29-43.32s-2.56,22.18-5.36,29.4" style="fill:none;stroke:#263238;stroke-linecap:round;stroke-linejoin:round"></path><line x1="232.64" y1="362.24" x2="234.7" y2="387.78" style="fill:none;stroke:#263238;stroke-linecap:round;stroke-linejoin:round"></line><line x1="230.37" y1="361.25" x2="227.31" y2="386.93" style="fill:none;stroke:#263238;stroke-linecap:round;stroke-linejoin:round"></line><line x1="267.47" y1="355.11" x2="291.87" y2="383.61" style="fill:none;stroke:#263238;stroke-linecap:round;stroke-linejoin:round"></line><line x1="268.87" y1="352.68" x2="286.42" y2="369.77" style="fill:none;stroke:#263238;stroke-linecap:round;stroke-linejoin:round"></line><line x1="319.65" y1="311.81" x2="336.92" y2="336.71" style="fill:none;stroke:#263238;stroke-linecap:round;stroke-linejoin:round"></line><line x1="316.7" y1="312.55" x2="327.68" y2="329.99" style="fill:none;stroke:#263238;stroke-linecap:round;stroke-linejoin:round"></line><polyline points="371.12 310.06 355.68 278.03 368.52 295.09" style="fill:none;stroke:#263238;stroke-linecap:round;stroke-linejoin:round"></polyline></g><g id="freepik--Character--inject-33"><path d="M152.16,135s-10.16,8.49-16.92,14.67a67.21,67.21,0,0,1-18.11,11.39c-2.34.86-9.32-.83-7.31,3.21s7.94,13,12.2,18.87,16.12,18,21.18,18.78A83.58,83.58,0,0,1,155,205.09s6.48,6.11,9,4.15.71-8.21.71-8.21A74.5,74.5,0,0,0,183,187.42c9.3-9.29,23.44-28.72,23.44-28.72s9.62.19,9.87-2-8.69-6.37-8.69-6.37a66.49,66.49,0,0,0-16.71-16.69,113.72,113.72,0,0,0-22.23-11.5s-3.29-4.63-6.39-3-2.33,6.69-2.33,6.69Z" style="fill:#fff"></path><g style="clip-path:url(#freepik--clip-path-2--inject-33)"><path d="M206.41,158.7s7.73.15,9.5-1.42c-3.15-2.74-5.94-5-6.63-5.55-1.69-1.42-51-19.68-59.84-.81,0,0-2.81,1.21-2.81,3.62v7.23s-3.62-2-6.43-2-12,2.81-12,2.81S140.6,161,144.62,165s10.44,14.86,11.24,16.87.41,9.64,1.61,6.42.8-14.05.8-14.05,3.62,1.2,8.44,6.42,4.41,13.66,4.41,15.26a2.12,2.12,0,0,0,.46.95A80.59,80.59,0,0,0,183,187.42C192.27,178.13,206.41,158.7,206.41,158.7Z" style="fill:#92E3A9"></path><path d="M206.41,158.7s7.73.15,9.5-1.42c-3.15-2.74-5.94-5-6.63-5.55-1.69-1.42-51-19.68-59.84-.81,0,0-2.81,1.21-2.81,3.62v7.23s-3.62-2-6.43-2-12,2.81-12,2.81S140.6,161,144.62,165s10.44,14.86,11.24,16.87.41,9.64,1.61,6.42.8-14.05.8-14.05,3.62,1.2,8.44,6.42,4.41,13.66,4.41,15.26a2.12,2.12,0,0,0,.46.95A80.59,80.59,0,0,0,183,187.42C192.27,178.13,206.41,158.7,206.41,158.7Z" style="fill:#fff;opacity:0.7000000000000001"></path></g><path d="M152.16,135s-10.16,8.49-16.92,14.67a67.21,67.21,0,0,1-18.11,11.39c-2.34.86-9.32-.83-7.31,3.21s7.94,13,12.2,18.87,16.12,18,21.18,18.78A83.58,83.58,0,0,1,155,205.09s6.48,6.11,9,4.15.71-8.21.71-8.21A74.5,74.5,0,0,0,183,187.42c9.3-9.29,23.44-28.72,23.44-28.72s9.62.19,9.87-2-8.69-6.37-8.69-6.37a66.49,66.49,0,0,0-16.71-16.69,113.72,113.72,0,0,0-22.23-11.5s-3.29-4.63-6.39-3-2.33,6.69-2.33,6.69Z" style="fill:none;stroke:#263238;stroke-linecap:round;stroke-linejoin:round"></path><path d="M159,204.65s-4.39-4.76-17.35-17-16.2-15.29-20.5-16.9-5.53-.63-5.53-.63,8.55,9.88,16.14,16.13S159,204.65,159,204.65Z" style="fill:#263238;stroke:#263238;stroke-linecap:round;stroke-linejoin:round"></path><path d="M169.51,176.09s5.25,7.12,11.1,9.9,12.48,1.58,14.4,2.6,16.37,12.47,25.37,17.36,11.49,6.12,11-3.21-8.56-14.2-11.71-19.91-30.53-13-31.78-9.57,1.81,8.5,1.81,8.5S167.31,171.37,169.51,176.09Z" style="fill:#fff;stroke:#263238;stroke-linecap:round;stroke-linejoin:round"></path><path d="M261.34,135.28s1.38-4.72,5.37-1.32,4.86,10.9,4.19,18.17-4.6,16.28-11.77,8.14S261.34,135.28,261.34,135.28Z" style="fill:#263238;stroke:#263238;stroke-linecap:round;stroke-linejoin:round"></path><path d="M334.81,98.27s-5.32-4.22-8.66-6.73-3.75-5-2.34-7.05,5.85-4.41,7.28-7.48,4.24-9.89,7.78-11.55,6.73-5.06,6.45-1.58S340.14,80,338.86,84.39s3.71,14.08,3.71,14.08l-7.23,1.94Z" style="fill:#fff;stroke:#263238;stroke-linecap:round;stroke-linejoin:round"></path><path d="M323.81,84.49c-1.41,2.09-1,4.53,2.34,7.05l.21.15A11.51,11.51,0,0,0,327.88,85a9,9,0,0,0-1-3.39A16.36,16.36,0,0,0,323.81,84.49Z" style="fill:#263238;stroke:#263238;stroke-linecap:round;stroke-linejoin:round"></path><path d="M338.87,65.46a6.54,6.54,0,0,0-1.72,1.25,28,28,0,0,0,6.05,3.91c.1,0,.2,0,.3.08a40,40,0,0,0,1.82-6.82C345.6,60.4,342.41,63.81,338.87,65.46Z" style="fill:#263238;stroke:#263238;stroke-linecap:round;stroke-linejoin:round"></path><path d="M344.23,138.5s1.63-6.54,2.54-10.58,2.82-5.37,5.09-4.87,5.8,3.7,8.9,3.84,9.83.11,12.49,2.74,6.67,4.27,3.64,5.35-15.37,1.4-19.55,1.92-10.49,8.84-10.49,8.84l-4.24-5.93Z" style="fill:#fff;stroke:#263238;stroke-linecap:round;stroke-linejoin:round"></path><path d="M351.86,123.05c-2.27-.5-4.17.83-5.09,4.87a2.21,2.21,0,0,0,0,.25A9.64,9.64,0,0,0,352.9,127a8.31,8.31,0,0,0,2.49-2.23A14.69,14.69,0,0,0,351.86,123.05Z" style="fill:none;stroke:#263238;stroke-linecap:round;stroke-linejoin:round"></path><path d="M373.25,129.63a6.31,6.31,0,0,0-1.67-1.11,30.46,30.46,0,0,0-1.11,7.09,2.91,2.91,0,0,0,0,.31,33.08,33.08,0,0,0,6.38-.94C379.92,133.9,375.91,132.26,373.25,129.63Z" style="fill:#263238;stroke:#263238;stroke-linecap:round;stroke-linejoin:round"></path><path d="M259.79,157.56s7.51-12.61,16.34-16.27,18.74-4,25.14-3.61,29.07,1.72,33,.85,4.75.42,4.66-3.85-2.37-13.27-6-20.45-3.76-12.13-3.13-13.86,5.24-3.65,10.56-3,5.71-3.15,11.58-4.94,2.4,12.29,4.59,21.57,4.32,20.5,5.45,29.07-1,15.31-6.67,17.5-17.06,3-17.06,3-5.92,7.32-7.9,12.8-3.92,19.8-8,31.05-17.66,7.31-24.56.23-16.19-12.07-19.26-13.5-7.13-1.94-8.86-2.56,1.28-8-2.64-17.93S258.66,159.77,259.79,157.56Z" style="fill:#92E3A9"></path><g style="clip-path:url(#freepik--clip-path-3--inject-33)"><path d="M362,143c-1.13-8.57-3.27-19.79-5.45-29.07-1.35-5.69-.56-13.19-1.1-17.72-2.77,9.72-6.17,24.7-5.61,29.78.8,7.22,8,14.05,4.82,13.65s-10.42-1.18-10,.4,11.65,6.83,10,6.83-8-6.83-9.24-2,4,7.23-11.24,5.62-32.53-.8-35.74,1.21-16.07,18.47-17.27,16.86,7.23-11.24,5.62-13.25-1.6,4.42-9.23,9.64-7.23,4.82-7.23,4.82l-3.5,3.25c.07.18.15.34.22.53,3.92,9.9.91,17.3,2.64,17.93s5.79,1.12,8.86,2.56,12.36,6.43,19.26,13.5,20.49,11,24.56-.23,6-25.57,8-31.05,7.9-12.8,7.9-12.8,11.38-.77,17.06-3S363.13,151.61,362,143Z" style="opacity:0.15"></path></g><path d="M259.79,157.56s7.51-12.61,16.34-16.27,18.74-4,25.14-3.61,29.07,1.72,33,.85,4.75.42,4.66-3.85-2.37-13.27-6-20.45-3.76-12.13-3.13-13.86,5.24-3.65,10.56-3,5.71-3.15,11.58-4.94,2.4,12.29,4.59,21.57,4.32,20.5,5.45,29.07-1,15.31-6.67,17.5-17.06,3-17.06,3-5.92,7.32-7.9,12.8-3.92,19.8-8,31.05-17.66,7.31-24.56.23-16.19-12.07-19.26-13.5-7.13-1.94-8.86-2.56,1.28-8-2.64-17.93S258.66,159.77,259.79,157.56Z" style="fill:none;stroke:#263238;stroke-linecap:round;stroke-linejoin:round"></path><path d="M172.87,173.13s1.72.57-11.41.57-20-12-16-15.4,5.71-3.42,5.71-3.42-10.84,0,1.14-14.27,26.81-8,37.65-4,16.55-14.83,11.41-24.53-8-25.1,1.71-30.24S214.52,83,219.66,91s8.56-2.28,14.83-13.12,24-10.27,32.52,6.84,12,36,1.14,47.36S257.88,164,240.2,164s-45.65-12-61-6.28S172.87,173.13,172.87,173.13Z" style="fill:#263238;stroke:#263238;stroke-linecap:round;stroke-linejoin:round"></path><path d="M159.46,148.28c2.79-3.88,6.81-8.22,11.7-9.95,9.7-3.42,22.82,2.86,47.93,5.71s34.23-1.71,40.5-20-.57-38.8-7.41-38.8-12.55,13.13-8.56,17.12S255,101.82,255,96.11s-6.85,0-6.85,0" style="fill:none;stroke:#fff;stroke-linecap:round;stroke-linejoin:round"></path><path d="M155.19,155.45s.59-1.29,1.69-3.18" style="fill:none;stroke:#fff;stroke-linecap:round;stroke-linejoin:round"></path><path d="M242.42,125.68a13.54,13.54,0,0,0,2.91-5" style="fill:none;stroke:#fff;stroke-linecap:round;stroke-linejoin:round"></path><path d="M209.39,137.19s18-1,28.69-7.88" style="fill:none;stroke:#fff;stroke-linecap:round;stroke-linejoin:round"></path><path d="M209.39,96.69s6.08,4.93,7.22-3.62S208.25,83,204.25,88.13s2.86,18.25,6.85,26.81,1.71,17.12-6.85,20" style="fill:none;stroke:#fff;stroke-linecap:round;stroke-linejoin:round"></path><path d="M163,153.48s15.52,1,22.27-3.38,8.1-7.09,14.18-7.42" style="fill:none;stroke:#fff;stroke-linecap:round;stroke-linejoin:round"></path><path d="M191.08,164.32a27.75,27.75,0,0,1-.59-7.39c.13-4.85,2.17-8.68,11.3-5.05S227.21,163.71,236,163s18.23-14.28,19.7-18.32,5.68-9.36,5.68-9.36-4.32,9.21-1.46,14.81,13.31,11,15.39,24.19-.87,18.61-.6,23.28l.26,4.66s-16.68-4.41-25.62-4.06-27.16-.71-32.93-2.8-20.67-15-24.11-17.23S186.05,171,191.08,164.32Z" style="fill:#92E3A9"></path><g style="clip-path:url(#freepik--clip-path-4--inject-33)"><path d="M274.67,197.56c-.24-4.17,2.07-9,1.1-19.29a35.41,35.41,0,0,0-10.67,2.37c-8,3.21-17.27,3.21-16.07,2.41s14.46-6.83,18-9.47S241.8,184.26,233,179.44,200.84,160.56,196.42,161s-2.41,6.83-2.41,6.83l-5.22.8a8,8,0,0,0,3.48,9.54c3.44,2.23,18.34,15.14,24.11,17.23s24,3.15,32.93,2.8,25.62,4.06,25.62,4.06Z" style="opacity:0.15"></path></g><path d="M191.08,164.32a27.75,27.75,0,0,1-.59-7.39c.13-4.85,2.17-8.68,11.3-5.05S227.21,163.71,236,163s18.23-14.28,19.7-18.32,5.68-9.36,5.68-9.36-4.32,9.21-1.46,14.81,13.31,11,15.39,24.19-.87,18.61-.6,23.28l.26,4.66s-16.68-4.41-25.62-4.06-27.16-.71-32.93-2.8-20.67-15-24.11-17.23S186.05,171,191.08,164.32Z" style="fill:none;stroke:#263238;stroke-linecap:round;stroke-linejoin:round"></path><path d="M187.84,173.26s1,0,5,1.49,11,7.57,11,4S194.75,165,190.92,163s-4-4.38-3.83-2S187.84,173.26,187.84,173.26Z" style="fill:#fff;stroke:#263238;stroke-linecap:round;stroke-linejoin:round"></path><path d="M168.23,173.33s0,3.6,5.46,6.55,11.17,7,15.47,5.94,6.61-.22,6.61-.22l27.43,9c9.05,3,14.29,2.89,15.86-1.43s-9-18.29-20.51-29c-7.09-6.61-23.51-16.11-27.67-14.6-2.85,1-5.08,5,.2,11.17s17.73,12.3,22.17,17.17,5.2,6.51,5.2,6.51-19.86-3-24.66-5.07-7.21-2.62-9-3.92S166.47,170.09,168.23,173.33Z" style="fill:#fff;stroke:#263238;stroke-linecap:round;stroke-linejoin:round"></path><path d="M218.45,184.41s4.16,5.05,6.54,6.53" style="fill:none;stroke:#263238;stroke-linecap:round;stroke-linejoin:round"></path><path d="M155.64,160.79s4.28,7.35,8.46,10,17.26,8.33,22.16,6.64,4-9.35,2.35-15.34a20.52,20.52,0,0,0-5.67-9.56s-2.25,1.69-7.26,2.22S158.32,156.61,155.64,160.79Z" style="fill:#fff;stroke:#263238;stroke-linecap:round;stroke-linejoin:round"></path><path d="M169.09,166.47l5.4,4.89s2.78,1.34,3-1.18" style="fill:none;stroke:#263238;stroke-linecap:round;stroke-linejoin:round"></path><path d="M179.58,173.53s3.62-1,2.69-6.53" style="fill:none;stroke:#263238;stroke-linecap:round;stroke-linejoin:round"></path><path d="M172.31,162.08l1.6,1.89s2.8.36,3.79-4.17" style="fill:none;stroke:#263238;stroke-linecap:round;stroke-linejoin:round"></path><path d="M166.68,169.51l1.89,2s2.51.26,2-2.86" style="fill:none;stroke:#263238;stroke-linecap:round;stroke-linejoin:round"></path><path d="M168.56,160.72s-.38-4.37,5.05-4" style="fill:none;stroke:#263238;stroke-linecap:round;stroke-linejoin:round"></path><path d="M166.7,165s-2.52-.26-2.23,3.43" style="fill:none;stroke:#263238;stroke-linecap:round;stroke-linejoin:round"></path><path d="M338.26,163.49S304,169,296.43,174.44" style="fill:none;stroke:#263238;stroke-linecap:round;stroke-linejoin:round"></path><path d="M298.41,184.29a94.26,94.26,0,0,1,10.47-14.48s-6.72,19.43-3.3,29.81" style="fill:none;stroke:#263238;stroke-linecap:round;stroke-linejoin:round"></path></g></svg>