<?xml version="1.0" standalone="no"?>
<!DOCTYPE svg PUBLIC "-//W3C//DTD SVG 20010904//EN"
 "http://www.w3.org/TR/2001/REC-SVG-20010904/DTD/svg10.dtd">
<svg version="1.0" xmlns="http://www.w3.org/2000/svg"
 width="24.000000pt" height="24.000000pt" viewBox="0 0 24.000000 24.000000"
 preserveAspectRatio="xMidYMid meet">

<g transform="translate(0.000000,24.000000) scale(0.100000,-0.100000)"
fill="#000000" stroke="none">
<path d="M60 165 c-24 -25 -39 -45 -32 -45 8 0 12 -16 12 -45 0 -43 1 -45 30
-45 27 0 30 3 30 30 0 23 4 30 20 30 16 0 20 -7 20 -30 0 -27 3 -30 30 -30 29
0 30 2 30 45 0 27 5 45 12 45 6 0 4 7 -5 18 -10 10 -17 28 -17 40 0 12 -4 22
-10 22 -5 0 -10 -5 -10 -12 0 -6 -7 -4 -18 5 -28 26 -44 21 -92 -28z m92 -2
c22 -21 28 -36 28 -70 0 -24 -4 -43 -10 -43 -5 0 -10 14 -10 30 0 28 -2 30
-40 30 -38 0 -40 -2 -40 -30 0 -16 -4 -30 -10 -30 -5 0 -10 19 -10 42 0 32 6
49 27 70 15 15 29 28 32 28 3 0 18 -12 33 -27z"/>
</g>
</svg>
