<?xml version="1.0" standalone="no"?>
<!DOCTYPE svg PUBLIC "-//W3C//DTD SVG 20010904//EN"
 "http://www.w3.org/TR/2001/REC-SVG-20010904/DTD/svg10.dtd">
<svg version="1.0" xmlns="http://www.w3.org/2000/svg"
 width="3000.000000pt" height="2000.000000pt" viewBox="0 0 3000.000000 2000.000000"
 preserveAspectRatio="xMidYMid meet">

<g transform="translate(0.000000,2000.000000) scale(0.100000,-0.100000)"
fill="#000000" stroke="none">
<path d="M8085 17739 c-82 -20 -197 -76 -263 -128 -20 -16 -55 -34 -77 -41
-161 -51 -312 -184 -390 -345 -73 -152 -70 -104 -70 -1040 0 -791 1 -844 19
-910 53 -197 206 -379 383 -456 132 -58 6 -53 1653 -59 l1515 -5 95 -67 c52
-37 143 -102 202 -145 59 -43 176 -128 260 -188 84 -61 204 -148 266 -193 61
-45 112 -77 112 -71 0 6 -27 94 -61 196 -33 101 -58 187 -55 190 3 3 78 -48
168 -114 214 -157 247 -178 258 -167 6 6 -26 116 -80 284 -93 283 -94 289 -45
290 43 1 161 45 224 84 20 12 67 30 105 39 127 31 227 88 325 185 71 70 96
103 129 172 23 47 51 121 62 166 20 79 21 106 18 930 l-3 849 -28 80 c-78 222
-230 374 -452 452 l-80 28 -2055 2 c-2011 2 -2057 1 -2135 -18z m4258 -46
c116 -44 181 -86 263 -168 89 -89 150 -194 179 -310 22 -89 22 -1698 0 -1794
-31 -130 -124 -278 -227 -361 -70 -56 -196 -116 -283 -135 -47 -10 -130 -15
-247 -15 -169 0 -178 -1 -178 -19 0 -11 45 -155 99 -321 54 -166 94 -299 87
-297 -11 4 -97 66 -531 382 -99 72 -219 159 -266 193 l-87 62 -1508 2 -1509 3
-80 28 c-211 74 -357 221 -433 436 l-27 76 0 855 0 855 23 75 c45 141 119 253
221 333 107 85 210 129 336 145 33 4 971 5 2085 2 l2025 -5 58 -22z"/>
<path d="M8007 17154 c-4 -4 -4 -11 -1 -15 3 -5 455 -9 1005 -9 881 0 999 2
999 15 0 13 -118 15 -998 15 -549 0 -1002 -3 -1005 -6z"/>
<path d="M8030 16880 c0 -20 4 -20 1908 -18 1687 3 1907 5 1907 18 0 13 -220
15 -1907 18 -1904 2 -1908 2 -1908 -18z"/>
<path d="M8015 16610 c-3 -5 -3 -14 0 -20 4 -7 420 -10 1216 -10 1202 0 1209
0 1209 20 0 20 -7 20 -1209 20 -796 0 -1212 -3 -1216 -10z"/>
<path d="M8022 16343 c3 -17 88 -18 1583 -21 869 -1 1590 0 1603 3 12 3 22 12
22 20 0 13 -194 15 -1606 15 -1524 0 -1605 -1 -1602 -17z"/>
<path d="M8005 16090 c-3 -6 0 -12 7 -15 7 -3 874 -4 1927 -3 1521 2 1915 6
1919 16 5 16 -3843 18 -3853 2z"/>
<path d="M8024 15829 c-3 -6 0 -15 7 -20 16 -10 3758 -13 3783 -3 9 3 16 12
16 20 0 12 -283 14 -1899 14 -1383 0 -1902 -3 -1907 -11z"/>
<path d="M8031 15571 c-7 -5 -10 -14 -7 -20 5 -8 528 -11 1922 -11 1819 0
1915 1 1912 18 -3 16 -103 17 -1908 19 -1075 2 -1911 -1 -1919 -6z"/>
<path d="M20095 17503 c-439 -36 -826 -217 -1121 -525 -125 -130 -209 -247
-290 -403 -146 -283 -203 -538 -191 -865 7 -189 28 -303 87 -482 90 -269 231
-491 440 -692 262 -250 562 -401 915 -460 512 -86 1052 72 1433 419 273 249
447 546 531 905 85 362 40 772 -120 1110 -234 492 -663 837 -1187 955 -160 36
-350 50 -497 38z m107 -178 c4 -193 21 -196 28 -5 l5 145 25 4 c42 5 238 -20
339 -44 279 -68 514 -189 729 -374 l63 -54 -100 -101 c-56 -56 -101 -107 -101
-114 0 -28 31 -7 120 83 52 52 100 95 107 95 19 0 167 -183 231 -285 145 -234
236 -512 249 -762 l6 -102 -152 -3 c-203 -4 -204 -21 -2 -28 l154 -5 -2 -75
c-10 -365 -171 -762 -420 -1040 l-50 -55 -108 108 c-60 59 -114 107 -121 107
-28 0 -6 -31 96 -133 l107 -108 -50 -46 c-209 -191 -482 -336 -752 -399 -89
-20 -258 -44 -320 -44 l-53 0 0 160 c0 136 -2 160 -15 160 -13 0 -15 -25 -15
-162 l0 -161 -100 7 c-371 24 -748 184 -1020 434 l-55 51 114 115 c94 94 112
116 97 122 -14 5 -44 -19 -128 -102 l-109 -109 -50 55 c-244 269 -411 681
-420 1035 l-2 80 154 5 c202 7 201 24 -2 28 l-152 3 6 102 c17 333 170 700
402 970 36 42 72 77 78 77 7 0 57 -45 112 -100 78 -79 102 -97 113 -88 11 9
-6 31 -87 112 -56 56 -101 107 -101 113 0 16 141 131 240 195 98 64 234 133
335 171 154 58 376 103 517 106 l57 1 3 -145z"/>
<path d="M20200 16461 l0 -549 -31 -12 c-17 -8 -40 -27 -50 -44 -61 -101 42
-211 152 -162 11 5 96 -70 308 -271 162 -153 297 -279 302 -281 5 -2 12 3 15
12 4 10 -26 45 -93 108 -506 482 -493 469 -483 488 26 49 -4 127 -59 150 l-31
12 0 549 c0 481 -2 549 -15 549 -13 0 -15 -68 -15 -549z"/>
<path d="M15301 15275 c-134 -30 -249 -109 -324 -223 -53 -81 -73 -131 -86
-213 -6 -34 -13 -64 -15 -67 -3 -2 -40 1 -83 7 -254 36 -525 17 -728 -51 -80
-27 -266 -116 -337 -161 -166 -107 -337 -314 -470 -567 -180 -344 -369 -1071
-454 -1745 -21 -173 -30 -682 -15 -853 51 -560 235 -1007 545 -1326 117 -120
232 -205 374 -274 87 -43 125 -56 160 -56 44 -1 47 1 50 26 2 20 -7 38 -38 70
-207 220 -368 599 -440 1038 -27 171 -26 176 20 96 124 -212 281 -379 480
-511 52 -35 108 -69 123 -76 l27 -12 0 -323 0 -323 -57 -11 c-585 -112 -1125
-271 -1418 -418 -137 -68 -203 -111 -281 -184 -50 -47 -69 -75 -104 -153 -24
-52 -46 -95 -49 -95 -4 0 -45 78 -93 173 -410 814 -963 1466 -1611 1901 -615
413 -1274 630 -2082 687 -214 15 -720 7 -940 -15 -303 -31 -669 -85 -915 -137
-356 -75 -444 -98 -372 -99 126 -1 342 -135 571 -355 308 -296 611 -694 1026
-1345 586 -922 779 -1187 1105 -1523 444 -459 1078 -818 1721 -976 248 -61
451 -88 727 -98 180 -6 184 -7 179 -27 -3 -12 -48 -147 -100 -301 l-95 -280
-224 -3 c-203 -2 -227 -4 -242 -20 -15 -17 -16 -195 -18 -2178 l-3 -2159 -652
-3 -653 -2 0 26 c0 14 9 69 19 122 11 54 52 266 91 472 39 206 96 502 126 658
l54 283 -157 262 c-86 144 -163 270 -171 280 -12 14 -31 17 -99 17 l-84 0 39
53 c110 152 182 307 182 397 0 115 -101 211 -184 176 -88 -37 -176 -225 -239
-511 l-24 -110 -38 0 -38 0 -39 155 c-21 85 -50 192 -64 238 l-25 83 43 57
c140 185 290 459 330 599 13 48 22 108 22 155 1 70 -2 81 -30 120 -114 163
-246 95 -313 -164 -32 -126 -70 -442 -72 -613 l-1 -70 -48 142 c-26 78 -80
227 -119 330 -39 104 -71 194 -71 200 0 5 22 39 48 74 284 376 443 756 392
939 -32 117 -160 184 -247 130 -108 -65 -191 -400 -208 -839 -3 -80 -8 -166
-11 -191 l-6 -45 -18 40 c-11 22 -40 87 -65 145 -55 125 -229 473 -273 547
l-31 51 45 57 c142 184 317 494 373 662 70 206 44 358 -70 423 -167 93 -275
-86 -333 -550 -13 -101 -34 -407 -37 -520 0 -14 -33 70 -73 185 -207 596 -386
925 -503 925 -94 0 -114 -77 -60 -235 57 -169 276 -527 504 -824 35 -45 62
-85 60 -87 -3 -3 -17 6 -33 19 -112 92 -438 278 -574 328 -220 80 -341 77
-431 -11 -55 -53 -78 -115 -59 -160 58 -141 393 -224 990 -246 l178 -7 85
-161 c125 -237 294 -602 284 -612 -2 -2 -22 8 -43 23 -339 235 -557 349 -748
390 -161 34 -285 -11 -331 -119 -37 -89 -7 -144 110 -203 155 -78 442 -125
861 -141 l180 -7 28 -71 c68 -171 216 -597 216 -622 0 -8 -41 15 -97 55 -283
198 -515 301 -681 301 -89 0 -139 -22 -182 -82 -117 -161 104 -276 613 -318
70 -5 181 -10 247 -10 l118 0 22 -72 c25 -82 100 -374 100 -388 0 -6 -48 -10
-116 -10 l-116 0 -83 55 c-45 30 -118 72 -161 92 -72 34 -87 37 -170 37 -85 1
-93 -1 -128 -28 -51 -39 -72 -88 -57 -137 13 -44 52 -79 133 -120 39 -20 56
-34 51 -42 -4 -7 -67 -101 -140 -209 -73 -108 -133 -205 -133 -216 0 -11 7
-53 14 -93 26 -130 44 -232 146 -824 55 -319 103 -592 106 -608 l6 -27 -431 0
c-395 0 -456 3 -422 24 5 3 21 32 37 63 l29 58 3 838 c3 835 3 837 -18 837
-19 0 -20 6 -20 190 0 183 -1 190 -20 190 -18 0 -20 7 -20 81 0 119 -30 159
-120 159 -30 0 -48 -7 -72 -29 -32 -28 -33 -32 -36 -120 -4 -82 -6 -91 -23
-91 -18 0 -19 -9 -19 -140 0 -87 -4 -140 -10 -140 -5 0 -10 -24 -10 -52 l0
-53 -50 3 -50 4 -2 341 -3 342 -32 10 c-18 6 -45 27 -60 48 -46 61 -79 59
-124 -7 -14 -22 -32 -36 -44 -36 -44 0 -45 -7 -45 -362 l0 -338 -65 0 -65 0 0
89 c0 50 5 93 10 96 13 8 13 252 0 260 -6 4 -10 88 -10 218 0 186 -3 217 -19
254 -45 98 -171 118 -250 39 l-36 -36 -3 -460 c-2 -445 -3 -460 -22 -460 -18
0 -19 13 -22 293 -3 258 -5 296 -21 325 -51 94 -190 104 -257 19 l-25 -31 -5
-306 -5 -305 -57 -3 -58 -3 0 -803 c0 -774 1 -806 20 -867 11 -35 29 -77 40
-94 11 -16 20 -33 20 -37 0 -5 -40 -8 -88 -8 -49 0 -115 -5 -148 -11 -182 -33
-351 -196 -393 -379 -15 -66 -13 -177 4 -245 46 -176 204 -327 383 -364 76
-16 18618 -16 18694 0 92 19 177 67 249 138 103 103 149 212 149 357 0 185
-102 357 -267 446 -103 57 -120 58 -695 58 l-528 0 0 1195 0 1195 -145 0 c-80
0 -145 3 -145 8 0 12 96 203 132 262 71 117 120 181 156 204 20 12 102 63 182
111 230 141 463 314 539 401 48 54 85 138 77 176 -24 122 -181 153 -364 72
-71 -31 -179 -137 -252 -246 -63 -93 -181 -330 -220 -438 -13 -36 -31 -74 -41
-85 -55 -64 -193 -306 -243 -428 l-15 -37 -220 0 c-170 0 -221 3 -221 13 0 18
56 226 97 357 71 231 196 520 289 667 121 192 125 196 274 282 63 37 131 76
150 88 260 160 377 241 630 433 230 176 309 296 277 421 -19 76 -113 144 -217
156 -60 7 -187 -12 -254 -39 -159 -62 -327 -240 -478 -503 -92 -162 -217 -431
-257 -557 -7 -21 -31 -64 -54 -95 -193 -265 -359 -646 -471 -1083 l-34 -135
-73 0 -72 0 -19 70 c-37 138 -90 312 -124 406 l-35 97 20 83 c28 118 65 222
89 250 11 13 57 71 101 129 45 58 85 110 90 116 5 6 38 53 73 105 143 207 225
368 248 486 23 116 -30 171 -157 160 -125 -10 -222 -86 -293 -230 -68 -140
-102 -327 -115 -622 -6 -128 -11 -163 -36 -236 -16 -48 -29 -91 -29 -97 0 -6
-5 -23 -11 -38 -10 -27 -13 -23 -63 92 -79 179 -165 333 -273 486 -29 42 -84
139 -122 215 -277 560 -565 960 -757 1054 -58 28 -131 34 -174 16 -47 -20
-108 -81 -131 -131 -39 -86 -17 -183 69 -298 83 -110 294 -302 512 -467 52
-39 104 -78 115 -87 11 -8 111 -76 221 -150 221 -147 220 -145 335 -335 61
-102 173 -327 219 -442 22 -57 22 -61 9 -165 -7 -59 -12 -189 -12 -289 l1
-183 -63 0 c-45 0 -66 4 -72 14 -27 47 -248 279 -353 369 -30 26 -95 75 -143
110 -49 34 -159 131 -245 217 -171 170 -299 272 -407 325 -170 83 -302 85
-427 6 -57 -36 -79 -68 -85 -125 -5 -39 -2 -47 33 -85 42 -48 90 -74 214 -119
163 -59 419 -121 655 -157 61 -10 124 -24 140 -33 48 -24 203 -143 295 -225
84 -76 270 -275 270 -289 0 -5 -85 -8 -190 -8 l-190 0 0 -1195 0 -1195 -1410
0 c-775 0 -1410 3 -1410 8 0 4 16 48 35 97 l36 91 142 -1 c159 0 229 14 244
48 13 29 0 62 -33 83 -23 16 -34 16 -93 6 -37 -6 -105 -27 -149 -46 -45 -20
-82 -32 -82 -28 0 4 23 55 52 115 l52 107 135 -6 c192 -10 320 15 336 65 16
52 -40 101 -116 101 -55 0 -168 -34 -251 -76 -37 -19 -70 -34 -72 -34 -6 0 89
167 137 242 l37 57 168 -6 c294 -10 410 28 376 125 -34 95 -193 86 -416 -23
-74 -36 -85 -39 -76 -21 14 27 119 166 174 232 l44 52 67 -25 c212 -77 421
-105 463 -63 40 40 20 105 -44 141 -37 22 -51 24 -161 22 -79 -1 -149 -8 -205
-21 -47 -11 -86 -19 -87 -18 -2 1 5 11 15 22 9 10 30 35 46 54 15 19 68 76
117 127 l89 92 123 -59 c160 -77 266 -112 353 -118 64 -4 74 -2 94 18 18 18
21 29 16 64 -16 104 -126 142 -390 134 l-160 -6 66 63 c36 34 107 97 157 139
l91 76 63 -35 c90 -49 284 -130 369 -154 100 -28 191 -28 219 0 18 18 21 30
16 72 -6 62 -36 94 -123 127 -49 19 -85 23 -209 27 -82 3 -184 0 -225 -5 -41
-5 -76 -9 -77 -8 -4 4 178 137 286 210 l113 77 52 -29 c177 -99 407 -183 509
-185 64 -2 70 0 93 26 30 35 31 74 2 117 -32 46 -65 68 -128 86 -74 20 -274
29 -385 16 -49 -6 -91 -9 -93 -8 -1 2 37 20 85 42 216 96 419 217 481 289 50
56 40 115 -18 115 -74 0 -303 -158 -503 -348 -32 -30 -60 -53 -62 -50 -3 2 15
45 39 94 135 278 179 462 121 519 -26 27 -57 31 -102 14 -71 -27 -107 -103
-122 -256 -8 -91 0 -309 14 -374 5 -24 -3 -31 -107 -99 -62 -40 -150 -102
-196 -137 -45 -34 -84 -63 -86 -63 -3 0 17 46 44 103 110 235 151 379 129 459
-11 43 -33 58 -81 58 -79 0 -138 -81 -159 -220 -11 -72 -7 -310 7 -405 5 -40
5 -40 -77 -110 -46 -38 -108 -93 -139 -122 -30 -28 -56 -51 -57 -49 -1 1 20
52 47 113 93 209 114 345 58 386 -24 18 -30 18 -69 6 -47 -15 -80 -54 -100
-118 -15 -47 -22 -308 -11 -386 l8 -60 -40 -45 c-23 -25 -80 -87 -128 -139
l-87 -94 16 49 c65 205 85 373 49 413 -41 45 -121 15 -153 -57 -24 -56 -19
-220 11 -357 l24 -110 -43 -55 c-54 -70 -169 -224 -186 -251 -12 -17 -14 8
-14 183 0 187 -2 207 -22 250 -29 62 -53 75 -101 51 -46 -22 -62 -53 -62 -118
0 -90 53 -241 132 -378 l28 -48 -28 -42 c-16 -23 -55 -86 -87 -140 -31 -53
-58 -97 -59 -97 -1 0 0 44 2 98 5 108 -10 228 -33 273 -13 23 -22 29 -49 29
-115 0 -114 -156 4 -389 l39 -79 -52 -110 -52 -109 0 121 c-1 177 -27 234 -96
206 -68 -28 -60 -141 21 -307 22 -44 40 -85 40 -90 0 -5 -18 -56 -39 -114
l-40 -104 -40 -3 -41 -3 0 2164 c0 2000 -1 2166 -17 2178 -12 11 -84 15 -327
19 l-311 5 -82 330 c-46 182 -91 365 -102 408 l-18 78 48 25 c33 16 49 31 49
43 0 16 -49 136 -130 316 -10 22 -32 74 -50 115 -17 41 -49 113 -70 160 -21
47 -93 211 -161 365 -67 154 -140 321 -161 370 -22 50 -52 119 -68 155 -66
155 -100 220 -135 259 -47 52 -187 146 -300 202 -47 23 -85 45 -85 48 0 3 43
32 95 64 l95 59 108 -62 c164 -94 375 -194 497 -235 89 -30 126 -38 193 -39
82 -1 84 -1 113 32 24 27 29 41 29 86 0 54 -27 110 -69 144 -31 26 -118 62
-202 84 -76 20 -108 22 -346 23 -145 0 -263 1 -263 1 0 3 142 86 205 121 33
18 139 73 236 122 l176 90 54 -56 c103 -105 276 -259 378 -336 236 -177 385
-200 422 -65 44 166 -142 308 -546 417 -60 16 -143 35 -182 42 -40 7 -73 16
-73 19 1 13 589 254 649 266 23 5 32 -3 73 -58 82 -111 196 -246 297 -352 267
-277 436 -339 497 -181 21 56 14 122 -21 180 -75 129 -328 279 -659 391 -64
21 -116 41 -116 45 0 9 370 124 595 184 l121 32 69 -91 c336 -435 598 -677
760 -701 88 -13 155 61 155 170 0 77 -24 130 -92 201 -129 137 -391 275 -738
390 l-114 38 50 13 c162 42 728 143 801 143 11 0 39 -28 68 -68 199 -268 440
-527 600 -643 152 -111 260 -114 313 -9 28 56 29 138 2 198 -66 145 -313 304
-695 447 -99 37 -181 68 -183 70 -1 1 48 0 110 -2 123 -6 550 11 693 27 190
21 366 70 418 118 27 24 39 60 31 95 -21 98 -282 93 -709 -15 -158 -40 -438
-121 -524 -152 -24 -9 -46 -16 -48 -16 -3 0 37 32 88 72 309 235 565 491 639
639 35 67 41 149 14 187 -46 67 -170 85 -261 38 -56 -28 -135 -103 -195 -184
-87 -118 -206 -377 -293 -640 -21 -63 -43 -115 -49 -117 -6 -1 -69 -10 -141
-19 -150 -19 -405 -65 -588 -105 -70 -15 -127 -26 -127 -25 0 2 33 27 73 58
202 152 417 349 533 488 90 108 138 201 138 270 0 45 -4 54 -36 83 -24 22 -54
37 -90 45 -191 43 -379 -165 -563 -625 -29 -71 -67 -176 -85 -233 -17 -57 -37
-105 -44 -107 -6 -2 -99 -27 -206 -56 -107 -28 -253 -71 -324 -95 -72 -24
-131 -42 -134 -40 -2 2 12 14 30 27 148 103 450 394 522 503 66 99 79 182 37
230 -41 48 -144 60 -219 26 -92 -42 -203 -186 -298 -385 -51 -108 -140 -340
-151 -396 -7 -38 -13 -42 -113 -77 -47 -17 -137 -51 -200 -77 -63 -26 -137
-56 -164 -66 -27 -11 -65 -28 -85 -38 -88 -45 -87 -35 4 60 322 334 453 575
363 666 -24 23 -38 28 -95 31 -64 4 -71 2 -118 -30 -58 -39 -141 -155 -175
-244 -66 -174 -114 -344 -140 -494 l-11 -65 -152 -77 c-167 -84 -397 -210
-439 -239 -14 -11 -31 -19 -36 -19 -6 0 18 51 52 114 217 393 297 652 231 752
-23 35 -76 48 -137 34 -105 -26 -168 -129 -204 -335 -12 -70 -15 -147 -12
-347 l3 -258 -93 -60 c-138 -89 -123 -85 -203 -54 -53 21 -69 32 -65 43 2 9
26 70 52 136 44 111 48 127 48 212 1 84 -1 93 -23 112 -28 25 -86 28 -134 7
-39 -16 -83 -66 -107 -121 -24 -56 -50 -175 -50 -229 0 -25 -4 -48 -10 -51 -5
-3 -63 10 -127 29 -200 59 -602 154 -815 192 l-38 6 0 308 0 308 98 55 c352
201 607 564 742 1060 32 116 33 117 62 117 48 0 102 37 142 98 57 86 71 146
71 297 0 122 -2 134 -29 193 -17 37 -45 77 -68 96 l-38 33 9 134 c20 318 -3
686 -61 974 -68 340 -214 673 -382 870 l-33 39 66 66 c108 105 161 231 161
378 0 147 -50 269 -153 369 -137 135 -307 186 -486 148z m49 -2265 c83 -244
263 -486 461 -620 65 -45 221 -125 262 -135 26 -7 27 -9 27 -81 0 -108 -27
-349 -55 -495 -90 -458 -260 -800 -524 -1051 -225 -214 -479 -323 -781 -335
-554 -22 -1019 267 -1296 807 l-49 95 1 435 c0 384 10 619 27 636 3 3 56 16
119 29 868 180 1466 504 1713 929 l28 49 23 -99 c12 -55 32 -128 44 -164z
m876 -819 c94 -143 60 -439 -63 -540 -21 -17 -48 -31 -61 -31 -21 0 -23 4 -18
24 17 68 48 308 56 440 6 81 13 152 16 157 9 15 43 -9 70 -50z m-6986 -1355
l171 -514 92 -59 c284 -180 675 -481 976 -752 74 -66 136 -120 137 -118 1 1
-67 247 -152 547 -85 300 -152 551 -149 558 7 18 33 15 39 -5 7 -23 136 -482
221 -783 36 -129 75 -269 87 -310 l21 -75 187 -190 c299 -305 536 -571 702
-792 22 -29 42 -52 43 -51 2 2 -1 28 -6 58 -5 30 -22 145 -38 255 -16 110 -51
339 -76 509 -33 219 -43 312 -36 319 23 23 34 -16 63 -205 16 -106 42 -283 59
-393 16 -110 44 -294 61 -410 l30 -210 42 -55 c93 -125 104 -144 93 -167 -9
-21 -16 -14 -85 80 -41 56 -78 106 -81 110 -6 6 -1369 137 -1423 137 -4 0 -8
9 -8 20 0 15 7 20 29 20 16 0 325 -27 687 -60 361 -33 659 -59 661 -57 9 10
-287 369 -469 570 -61 67 -192 204 -292 305 l-181 183 -80 -5 c-44 -3 -358
-20 -698 -37 -620 -32 -664 -32 -631 1 7 7 1229 80 1348 80 15 0 -37 51 -164
164 -275 244 -583 483 -879 679 l-174 116 -76 -5 c-107 -7 -1477 -64 -1540
-64 -44 0 -51 3 -51 20 0 15 7 20 28 20 15 0 122 5 237 10 116 5 428 19 695
30 482 20 620 27 626 33 8 8 -321 189 -531 292 -574 282 -1104 455 -1690 550
-205 33 -205 33 -205 49 0 23 22 25 121 10 611 -91 1252 -295 1829 -584 156
-78 387 -205 475 -261 33 -21 61 -36 62 -35 2 2 -69 218 -157 482 -88 263
-158 485 -155 491 18 48 39 -5 205 -501z m5004 -520 c278 -93 547 -96 829 -10
43 13 80 24 82 24 3 0 6 -170 7 -377 3 -351 4 -378 21 -381 14 -3 17 5 17 52
0 53 1 56 26 56 14 0 118 -20 232 -44 691 -149 1170 -317 1412 -497 89 -65
107 -89 156 -196 38 -84 284 -643 366 -833 27 -63 60 -137 72 -165 73 -161
246 -564 246 -572 0 -12 -82 -49 -240 -108 -259 -96 -532 -171 -730 -200 -63
-9 -129 -18 -146 -21 l-31 -4 -32 -145 c-24 -110 -81 -415 -81 -432 0 -7
-3626 -2 -3636 5 -6 4 -19 57 -28 117 -26 162 -75 417 -85 441 -8 18 -21 23
-78 29 -157 16 -393 73 -629 151 -136 45 -377 136 -402 153 -16 9 -25 -15 165
421 361 823 518 1180 538 1220 74 147 352 300 805 443 271 86 469 138 783 202
l207 43 0 -59 c0 -52 2 -59 20 -59 20 0 20 7 20 390 0 215 2 390 6 390 3 0 51
-15 108 -34z m-2489 -3071 c273 -106 519 -176 770 -218 l140 -23 23 -111 23
-111 -59 -154 -59 -153 -622 -3 c-341 -1 -621 1 -621 5 0 5 61 191 137 415
l137 406 36 -14 c19 -9 62 -26 95 -39z m5970 -382 c52 -211 95 -385 95 -388 0
-3 -260 -5 -577 -5 l-578 0 -59 147 -58 148 23 108 c12 60 29 115 36 123 8 8
27 14 43 14 139 0 704 151 915 245 45 20 51 20 57 6 4 -9 50 -188 103 -398z
m-4970 -345 l7 -48 -62 0 c-55 0 -61 2 -56 18 4 9 23 60 44 112 l37 94 12 -64
c6 -36 14 -86 18 -112z m3851 -22 c6 -26 6 -26 -51 -26 l-57 0 6 48 c4 26 12
73 18 105 l11 59 33 -80 c18 -44 36 -92 40 -106z m5528 -1617 c35 -104 106
-349 106 -366 0 -10 -19 -13 -74 -13 -68 0 -74 2 -80 23 -8 30 -8 338 1 406 7
61 11 57 47 -50z m-15634 -6 c41 -24 53 -57 58 -165 l4 -98 -116 0 -116 0 0
95 c0 103 12 141 52 169 29 21 83 20 118 -1z m495 -618 l0 -330 -112 -3 -113
-3 0 329 c0 181 3 332 7 336 4 3 54 5 112 4 l106 -3 0 -330z m-845 308 c16 -9
33 -27 39 -40 7 -15 11 -127 11 -313 l0 -290 -110 0 -110 0 0 293 c1 312 3
326 51 353 33 18 86 17 119 -3z m405 -318 l0 -320 -112 -3 -113 -3 0 319 c0
175 3 322 7 326 4 3 54 5 112 4 l106 -3 0 -320z m16660 -960 l0 -1170 -852 -3
-853 -2 0 1175 0 1175 853 -2 852 -3 0 -1170z m-15785 805 l0 -171 -112 3
-113 3 -3 168 -2 167 115 0 115 0 0 -170z m2165 -161 c83 -138 152 -255 153
-260 2 -5 -359 -9 -838 -9 -757 0 -842 2 -836 16 3 8 61 97 129 197 68 100
143 210 166 245 l42 62 517 0 517 0 150 -251z m145 -324 c0 -12 -171 -920
-256 -1357 l-26 -138 -559 0 c-307 0 -560 4 -563 8 -3 5 -21 105 -41 223 -44
259 -213 1225 -220 1257 l-5 22 835 0 c726 0 835 -2 835 -15z m14669 -1563
c189 -80 301 -243 301 -436 0 -218 -138 -395 -351 -451 -80 -22 -18627 -22
-18706 -1 -205 55 -353 241 -353 443 0 37 5 88 11 112 36 159 175 302 338 347
37 10 1872 12 9376 11 l9330 -2 54 -23z"/>
<path d="M15195 12614 c-104 -16 -135 -26 -135 -45 0 -21 8 -23 65 -9 59 14
208 14 252 -1 21 -6 48 -20 61 -30 13 -10 30 -15 38 -12 55 21 -73 90 -181 97
-38 2 -83 2 -100 0z"/>
<path d="M14110 12393 c-126 -64 -95 -353 39 -353 75 0 124 71 124 180 1 132
-78 216 -163 173z"/>
<path d="M15165 12403 c-55 -13 -105 -103 -105 -188 0 -58 27 -131 57 -155 31
-24 85 -26 119 -3 87 56 93 275 10 328 -28 17 -56 24 -81 18z"/>
<path d="M14580 12130 c0 -7 10 -58 21 -113 28 -131 31 -320 6 -387 -23 -62
-21 -87 9 -117 24 -24 30 -25 100 -21 58 4 88 12 141 39 39 20 69 41 71 52 5
24 -11 21 -84 -14 -76 -38 -181 -51 -202 -26 -11 13 -10 25 3 69 23 80 29 174
16 286 -17 142 -42 236 -63 240 -10 2 -18 -2 -18 -8z"/>
<path d="M15083 11315 c-117 -109 -289 -151 -446 -110 -73 19 -77 19 -77 -3 0
-26 55 -42 162 -49 110 -7 194 9 278 53 71 37 150 105 150 129 0 25 -27 17
-67 -20z"/>
<path d="M8792 3251 c-96 -33 -182 -123 -217 -228 -29 -84 -27 -238 4 -312 32
-80 73 -133 133 -174 58 -40 160 -69 178 -51 6 6 17 44 26 85 23 109 14 209
-32 339 -39 112 -48 195 -31 308 4 28 4 52 0 52 -4 -1 -32 -9 -61 -19z"/>
<path d="M8925 3253 c-4 -10 -9 -63 -12 -118 -4 -104 1 -132 56 -289 25 -71
28 -209 7 -301 -8 -33 -13 -62 -11 -64 9 -9 112 33 152 62 154 110 201 377 98
553 -55 94 -139 154 -237 169 -38 6 -46 4 -53 -12z"/>
</g>
</svg>
